HIERARCHY
ROOT Hips
{
    OFFSET 0.0 0.0 0.0
    CHANNELS 6 Xposition Yposition Zposition Zrotation Xrotation Yrotation
    JOINT LeftUpLeg
    {
        OFFSET 16.30003784899443 0.0 0.0
        CHANNELS 3 Zrotation Xrotation Yrotation
        JOINT LeftLeg
        {
            OFFSET 0.0 0.0 -61.47479213598169
            CHANNELS 3 Zrotation Xrotation Yrotation
            JOINT LeftFoot
            {
                OFFSET 0.0 0.0 -47.458801496151615
                CHANNELS 3 Zrotation Xrotation Yrotation
                JOINT LeftToeBase
                {
                    OFFSET 0.0 -11.89737931194513 0.0
                    CHANNELS 3 Zrotation Xrotation Yrotation
                    End Site
                    {
                        OFFSET 0 0 0
                    }
                }
            }
        }
    }
    JOINT RightUpLeg
    {
        OFFSET -16.30003784899443 0.0 0.0
        CHANNELS 3 Zrotation Xrotation Yrotation
        JOINT RightLeg
        {
            OFFSET 0.0 0.0 -61.47479213598169
            CHANNELS 3 Zrotation Xrotation Yrotation
            JOINT RightFoot
            {
                OFFSET 0.0 0.0 -47.458801496151615
                CHANNELS 3 Zrotation Xrotation Yrotation
                JOINT RightToeBase
                {
                    OFFSET 0.0 -11.89737931194513 0.0
                    CHANNELS 3 Zrotation Xrotation Yrotation
                    End Site
                    {
                        OFFSET 0 0 0
                    }
                }
            }
        }
    }
    JOINT Spine
    {
        OFFSET 0.0 0.0 11.590875352780808
        CHANNELS 3 Zrotation Xrotation Yrotation
        JOINT Spine1
        {
            OFFSET 0.0 0.0 11.129618675215193
            CHANNELS 3 Zrotation Xrotation Yrotation
            JOINT Spine2
            {
                OFFSET 0.0 0.0 11.129618675215193
                CHANNELS 3 Zrotation Xrotation Yrotation
                JOINT Spine3
                {
                    OFFSET 0.0 0.0 11.129618675215188
                    CHANNELS 3 Zrotation Xrotation Yrotation
                    JOINT Spine4
                    {
                        OFFSET 0.0 0.0 11.129618675215195
                        CHANNELS 3 Zrotation Xrotation Yrotation
                        JOINT RightShoulder
                        {
                            OFFSET -26.899029565422538 0.0 0.0
                            CHANNELS 3 Zrotation Xrotation Yrotation
                            JOINT RightArm
                            {
                                OFFSET -33.25400186051287 0.0 0.0
                                CHANNELS 3 Zrotation Xrotation Yrotation
                                JOINT RightForeArm
                                {
                                    OFFSET -33.171510194706435 0.0 0.0
                                    CHANNELS 3 Zrotation Xrotation Yrotation
                                    JOINT RightHand
                                    {
                                        OFFSET -10.515956763548012 0.0 0.0
                                        CHANNELS 3 Zrotation Xrotation Yrotation
                                        End Site
                                        {
                                            OFFSET 0 0 0
                                        }
                                    }
                                }
                            }
                        }
                        JOINT LeftShoulder
                        {
                            OFFSET 26.899029565422538 0.0 0.0
                            CHANNELS 3 Zrotation Xrotation Yrotation
                            JOINT LeftArm
                            {
                                OFFSET 33.25400186051287 0.0 0.0
                                CHANNELS 3 Zrotation Xrotation Yrotation
                                JOINT LeftForeArm
                                {
                                    OFFSET 33.171510194706435 0.0 0.0
                                    CHANNELS 3 Zrotation Xrotation Yrotation
                                    JOINT LeftHand
                                    {
                                        OFFSET 10.515956763548012 0.0 0.0
                                        CHANNELS 3 Zrotation Xrotation Yrotation
                                        End Site
                                        {
                                            OFFSET 0 0 0
                                        }
                                    }
                                }
                            }
                        }
                        JOINT Neck
                        {
                            OFFSET 0.0 0.0 11.129618603146017
                            CHANNELS 3 Zrotation Xrotation Yrotation
                            JOINT Head
                            {
                                OFFSET 0.0 0.0 26.432756008859528
                                CHANNELS 3 Zrotation Xrotation Yrotation
                                End Site
                                {
                                    OFFSET 0 0 0
                                }
                            }
                        }
                    }
                }
            }
        }
    }
}
MOTION
Frames: 6
Frame Time: 0.03333333333333333
19.449229055643084 20.011177718639374 458.2092807769776 9.816271074670864 -48.328986344474664 9.034497104146752 14.09283081649645 -41.23585789427919 7.871934491353829 30.701691880196382 -25.623729054460156 19.112583015067976 -151.69423245632444 -1.1131941385122309e-14 42.401383288876445 -6.3611093629270335e-15 0.0 0.0 -21.3322498844947 -46.54906934347994 -9.503012714244344 -4.106090221684271 -3.7411762680404372 -10.143880233999802 123.8358654096636 -3.1805546814635168e-15 -58.362222796110395 0.0 0.0 0.0 0.7034095874494547 -42.01996894487701 2.8275127052538465 7.951386703658791e-16 0.0 0.0 7.951386703658791e-16 0.0 0.0 7.951386703658791e-16 0.0 0.0 7.951386703658791e-16 0.0 0.0 153.9402691518537 5.362726084906645 -140.36890601246606 121.97006877265447 0.0 0.0 -5.429295528646211e-15 -21.004183023913026 -7.475949967319888e-15 -1.5902773407317584e-15 0.0 0.0 -142.02614188503404 -0.9683471164061502 145.81251399454544 -111.51251507401261 -1.3201454577984771e-14 3.2151647730529543e-15 180.0 -17.655196525305755 180.0 0.0 0.0 -1.2921003393445538e-15 -3.7290925442950114 -1.478971740542916e-14 -8.368398444283041e-17 -1.987846675914698e-16 0.0 0.0
19.449229055643084 20.011177718639374 458.2092807769776 9.816271074670864 -48.328986344474664 9.034497104146752 14.09283081649645 -41.23585789427919 7.871934491353829 30.701691880196382 -25.623729054460156 19.112583015067976 -151.69423245632444 -1.1131941385122309e-14 42.401383288876445 -6.3611093629270335e-15 0.0 0.0 -21.3322498844947 -46.54906934347994 -9.503012714244344 -4.106090221684271 -3.7411762680404372 -10.143880233999802 123.8358654096636 -3.1805546814635168e-15 -58.362222796110395 0.0 0.0 0.0 0.7034095874494547 -42.01996894487701 2.8275127052538465 7.951386703658791e-16 0.0 0.0 7.951386703658791e-16 0.0 0.0 7.951386703658791e-16 0.0 0.0 7.951386703658791e-16 0.0 0.0 153.9402691518537 5.362726084906645 -140.36890601246606 121.97006877265447 0.0 0.0 -5.429295528646211e-15 -21.004183023913026 -7.475949967319888e-15 -1.5902773407317584e-15 0.0 0.0 -142.02614188503404 -0.9683471164061502 145.81251399454544 -111.51251507401261 -1.3201454577984771e-14 3.2151647730529543e-15 180.0 -17.655196525305755 180.0 0.0 0.0 -1.2921003393445538e-15 -3.7290925442950114 -1.478971740542916e-14 -8.368398444283041e-17 -1.987846675914698e-16 0.0 0.0
19.449229055643084 20.011177718639374 458.2092807769776 9.816271074670864 -48.328986344474664 9.034497104146752 14.09283081649645 -41.23585789427919 7.871934491353829 30.701691880196382 -25.623729054460156 19.112583015067976 -151.69423245632444 -1.1131941385122309e-14 42.401383288876445 -6.3611093629270335e-15 0.0 0.0 -21.3322498844947 -46.54906934347994 -9.503012714244344 -4.106090221684271 -3.7411762680404372 -10.143880233999802 123.8358654096636 -3.1805546814635168e-15 -58.362222796110395 0.0 0.0 0.0 0.7034095874494547 -42.01996894487701 2.8275127052538465 7.951386703658791e-16 0.0 0.0 7.951386703658791e-16 0.0 0.0 7.951386703658791e-16 0.0 0.0 7.951386703658791e-16 0.0 0.0 153.9402691518537 5.362726084906645 -140.36890601246606 121.97006877265447 0.0 0.0 -5.429295528646211e-15 -21.004183023913026 -7.475949967319888e-15 -1.5902773407317584e-15 0.0 0.0 -142.02614188503404 -0.9683471164061502 145.81251399454544 -111.51251507401261 -1.3201454577984771e-14 3.2151647730529543e-15 180.0 -17.655196525305755 180.0 0.0 0.0 -1.2921003393445538e-15 -3.7290925442950114 -1.478971740542916e-14 -8.368398444283041e-17 -1.987846675914698e-16 0.0 0.0
17.765101164579395 19.961524200439456 457.57978420257575 8.754348251037113 -48.467851748727185 7.468987552130344 17.599451403131003 -42.86442963059677 10.78379725608319 27.566583599095363 -23.79928318023857 14.918111655907424 -152.70131590946917 3.1805546814635168e-15 40.282417755635116 0.0 0.0 0.0 -18.773217412408364 -45.56823579794941 -7.492810509372478 -7.457091849441262 -6.655837811200446 -12.582364375591121 120.87222313345038 -9.54166404439055e-15 -62.281996741335796 0.0 0.0 0.0 1.0897444545779833 -42.00348397906022 2.712795096336857 0.0 0.0 0.0 0.0 0.0 0.0 0.0 0.0 0.0 0.0 0.0 0.0 153.69474098177287 5.455541224789833 -140.4565615575773 121.44045355207894 -2.3332925721749755e-15 4.1613199776797916e-15 4.497938870055406e-16 -21.72446909611518 6.5634689609447425e-15 3.1805546814635168e-15 0.0 0.0 -141.75600167829023 -0.4688984529582356 145.64707376107393 -112.25551951953459 1.189252916947946e-14 -5.110069354475828e-15 180.0 -24.145197891896004 180.0 0.0 0.0 3.975693351829396e-16 -3.4688617935553223 -3.1490145324787755e-15 -1.0897335260297573e-15 -1.987846675914698e-16 0.0 0.0
16.99088825583458 19.930423164367678 457.3007972717286 8.302310111001564 -48.52454953282378 6.751451701486957 20.570796608617574 -44.114407460681946 13.02797322899528 24.422015311665174 -21.589075928509804 12.176807371708714 -150.87665119003356 -7.951386703658792e-15 40.01175157270421 -6.3611093629270335e-15 0.0 0.0 -17.086007657001858 -44.83274249623306 -6.151098416032475 -9.725387310141741 -8.558529188431377 -14.048536070999422 122.88423212542195 -3.1805546814635168e-15 -58.534757897754346 0.0 0.0 0.0 1.2781198192249221 -41.968584598118476 2.6838091404224937 3.975693351829396e-16 0.0 0.0 3.975693351829396e-16 0.0 0.0 3.975693351829396e-16 0.0 0.0 3.975693351829396e-16 0.0 0.0 153.36329648701377 5.375640952563339 -140.3638045933289 121.1845606193482 -8.74035175893456e-15 -1.0402977392197166e-14 4.667100323533095e-15 -21.891837772558475 7.381604014759462e-15 -1.5902773407317584e-15 0.0 0.0 -141.96255019906414 0.11995472695730824 145.77949982298492 -112.66349497808736 -3.0900477612043238e-15 6.835309414238288e-15 -180.0 -27.985783546618933 -180.0 0.0 0.0 -1.6896696745274934e-15 -3.2881037837023843 1.1369021732584513e-14 1.2744708916519876e-16 0.0 0.0 0.0
16.509888249635697 19.893376314640044 457.1128967285157 8.021334446149083 -48.536551924898006 6.39224263722829 21.06624450416732 -44.34799254519432 13.269185020986356 23.93320777025274 -21.153245746989395 11.521053744767542 -149.4301284933865 1.2722218725854067e-14 40.676486432892574 6.3611093629270335e-15 0.0 0.0 -15.896111449089561 -44.21963137675223 -5.310557944940105 -11.520504397702586 -10.046542702006526 -15.04642163488177 127.10362153167625 1.5902773407317584e-14 -50.68048486003239 0.0 0.0 3.1805546814635168e-15 1.3003427474993148 -41.935111517401836 2.600226108167588 -3.975693351829396e-16 0.0 0.0 -3.975693351829396e-16 0.0 0.0 -3.975693351829396e-16 0.0 0.0 -3.975693351829396e-16 0.0 0.0 153.00676488940485 5.2610632576596466 -140.28411062060633 121.01838367266146 2.4054583315181665e-15 8.668402094363516e-15 -4.569057919427866e-15 -16.870399539099118 -1.9969589713582383e-14 1.5902773407317584e-15 0.0 0.0 -142.4821272785342 0.7720151614327203 146.05894353467585 -113.42462728065557 -9.533481163752348e-16 1.0138017074716514e-14 180.0 -32.69481946238092 180.0 0.0 0.0 -9.93923337957349e-17 -2.9459818002781093 1.867390705831578e-15 8.434199779190815e-16 0.0 0.0 0.0
